# xmcd CD database file
#
# Track frame offsets:
#	150
#	11870
#	23397
#	35150
#	49752
#	60945
#	71595
#	83867
#	94902
#	106892
#	116417
#	130280
#	140155
#	151182
#	162242
#	173520
#	184402
#	197075
#	210127
#	222717
#
# Disc length: 3112 seconds
#
# Revision: 1
# Processed by: cddbd v1.5.2PL0 Copyright (c) Steve Scherf et al.
# Submitted via: CDex 1.51
#
DISCID=150c2614
DTITLE=George Jones - 20 Gospel Greats
DYEAR=1997
DGENRE=Gospel
TTITLE0=Small Time Laboring Man
TTITLE1=Wandering Soul
TTITLE2=Bringin' It Home
TTITLE3=Family Bible
TTITLE4=Old Brush Arbors
TTITLE5=Won't It Be Wonderful There
TTITLE6=I'll Fly Away
TTITLE7=Where We Never Grow Old
TTITLE8=Take The World But Give Me Jesus
TTITLE9=Boat Of Life
TTITLE10=Will There Be Stars In My Crown
TTITLE11=If You Believe
TTITLE12=How Beautiful Heaven Must Be
TTITLE13=Leaning On The Everlasting Arms
TTITLE14=Lord You've Been Mighty Good To Me
TTITLE15=Will The Circle Be Unbroken
TTITLE16=Flowers For Mama
TTITLE17=The Rugged Cross
TTITLE18=The Unclouded Day
TTITLE19=Cup Of Loneliness
EXTD=YEAR: 1997
EXTT0=
EXTT1=
EXTT2=
EXTT3=
EXTT4=
EXTT5=
EXTT6=
EXTT7=
EXTT8=
EXTT9=
EXTT10=
EXTT11=
EXTT12=
EXTT13=
EXTT14=
EXTT15=
EXTT16=
EXTT17=
EXTT18=
EXTT19=
PLAYORDER=
